<?xml version="1.0" encoding="utf-8"?>
<!-- Generator: Adobe Illustrator 23.0.1, SVG Export Plug-In . SVG Version: 6.00 Build 0)  -->
<svg version="1.1" id="Layer_1" xmlns="http://www.w3.org/2000/svg" xmlns:xlink="http://www.w3.org/1999/xlink" x="0px" y="0px"
	 viewBox="0 0 566.27 253.01" style="enable-background:new 0 0 566.27 253.01;" xml:space="preserve">
<style type="text/css">
	.st0{fill:none;stroke:#FFFFFF;stroke-miterlimit:10;}
</style>
<g>
	<path class="st0" d="M172.2,58.55l-0.16-0.16c0-0.11-0.06-0.21-0.16-0.32c-0.11-0.11-0.16-0.22-0.16-0.32l-0.65-0.65l-0.97-1.46
		l-2.27-2.92c-1.62-1.94-3.13-3.56-4.54-4.86c-2.92-3.02-6.1-5.45-9.56-7.29c-1.73-0.97-3.48-1.78-5.26-2.43s-3.59-1.24-5.43-1.78
		c-0.97-0.22-1.94-0.41-2.92-0.57c-0.97-0.16-2-0.35-3.08-0.57c-0.97-0.11-1.97-0.19-3-0.24c-1.03-0.05-2.08-0.08-3.16-0.08
		c-2.27,0-4.43,0.16-6.48,0.49c-1.08,0.22-2.16,0.41-3.24,0.57c-1.08,0.16-2.16,0.35-3.24,0.57c-1.19,0.22-2.3,0.49-3.32,0.81
		c-1.03,0.32-2.13,0.65-3.32,0.97c-2.16,0.65-4.27,1.46-6.32,2.43c-4.32,1.73-8.53,3.78-12.63,6.16c-4.1,2.38-8.05,4.97-11.82,7.77
		C72.85,60.5,65.78,67.08,59.3,74.43c-1.51,1.84-3.02,3.7-4.54,5.59c-1.51,1.89-3.02,3.81-4.54,5.75c-1.4,2.05-2.78,4.08-4.13,6.07
		c-1.35,2-2.62,4.08-3.81,6.24c-1.3,2.16-2.51,4.32-3.64,6.48c-1.13,2.16-2.24,4.37-3.32,6.64l-1.46,3.4l-1.46,3.24
		c-0.54,1.19-1,2.35-1.38,3.48c-0.38,1.13-0.78,2.3-1.21,3.48c-0.87,2.27-1.62,4.56-2.27,6.88c-0.65,2.32-1.24,4.73-1.78,7.21
		c-0.54,2.38-0.97,4.75-1.3,7.13c-0.32,2.38-0.59,4.81-0.81,7.29c-0.22,2.38-0.3,4.75-0.24,7.13c0.05,2.38,0.19,4.75,0.4,7.13
		c0.22,2.49,0.57,4.89,1.05,7.21c0.49,2.32,1.05,4.62,1.7,6.88c1.51,4.64,3.45,8.96,5.83,12.96c0.54,1.08,1.16,2.11,1.86,3.08
		c0.7,0.97,1.38,1.94,2.02,2.92c0.75,0.97,1.51,1.89,2.27,2.75c0.75,0.86,1.56,1.73,2.43,2.59c0.86,0.86,1.73,1.7,2.59,2.51
		c0.86,0.81,1.78,1.64,2.75,2.51c1.73,1.51,3.67,2.97,5.83,4.37c2.16,1.4,4.21,2.64,6.16,3.73c1.19,0.54,2.29,1.08,3.32,1.62
		c1.02,0.54,2.13,1.08,3.32,1.62c1.19,0.54,2.35,1.03,3.48,1.46c1.13,0.43,2.29,0.86,3.48,1.3c1.19,0.43,2.37,0.81,3.56,1.13
		c1.19,0.32,2.37,0.65,3.56,0.97c4.86,1.3,9.77,2.27,14.74,2.92c5.07,0.65,10.1,1.05,15.06,1.21c4.97,0.16,10.04,0.13,15.23-0.08
		c5.18-0.22,10.29-0.65,15.31-1.3c5.02-0.65,10.07-1.4,15.15-2.27c5.07-0.87,10.1-1.89,15.06-3.08c4.97-1.19,9.93-2.49,14.9-3.89
		c4.97-1.51,9.85-3.08,14.66-4.7c4.8-1.62,9.64-3.35,14.5-5.18c1.51-0.54,2.97-0.51,4.37,0.08c1.4,0.59,2.37,1.64,2.92,3.16
		c0.54,1.51,0.51,2.97-0.08,4.37c-0.59,1.4-1.65,2.37-3.16,2.92c-0.11,0-0.16,0.03-0.16,0.08c0,0.05-0.06,0.08-0.16,0.08
		c-5.08,1.51-10.12,3-15.15,4.45c-5.02,1.46-10.12,2.83-15.31,4.13c-5.18,1.19-10.31,2.35-15.39,3.48c-5.08,1.13-10.26,2.13-15.55,3
		c-2.59,0.43-5.18,0.81-7.77,1.13c-2.59,0.32-5.18,0.65-7.78,0.97c-2.7,0.32-5.35,0.59-7.94,0.81c-2.59,0.22-5.24,0.38-7.94,0.49
		c-5.4,0.21-10.72,0.27-15.96,0.16c-5.24-0.11-10.56-0.49-15.96-1.13c-2.7-0.32-5.37-0.7-8.02-1.13c-2.65-0.43-5.26-0.97-7.86-1.62
		c-1.3-0.32-2.59-0.68-3.89-1.05c-1.3-0.38-2.59-0.79-3.89-1.21c-1.3-0.43-2.59-0.84-3.89-1.21c-1.3-0.38-2.59-0.84-3.89-1.38
		l-7.45-3.4c-1.19-0.65-2.4-1.3-3.65-1.94c-1.24-0.65-2.46-1.35-3.64-2.11c-1.19-0.76-2.32-1.51-3.4-2.27
		c-1.08-0.76-2.21-1.57-3.4-2.43c-1.19-0.87-2.3-1.76-3.32-2.67c-1.03-0.92-2.02-1.86-3-2.83c-4-3.78-7.56-8.1-10.69-12.96
		c-1.62-2.38-3.05-4.83-4.29-7.37c-1.24-2.54-2.4-5.1-3.48-7.69c-0.97-2.48-1.78-5.18-2.43-8.1c-0.43-1.4-0.78-2.78-1.05-4.13
		c-0.27-1.35-0.51-2.73-0.73-4.13c-0.54-2.81-0.89-5.59-1.05-8.34c-0.16-2.75-0.24-5.53-0.24-8.34c0-2.81,0.11-5.56,0.32-8.26
		c0.21-2.7,0.54-5.45,0.97-8.26c0.54-2.81,1.08-5.53,1.62-8.18c0.54-2.64,1.19-5.32,1.94-8.02c0.65-2.37,1.46-5.02,2.43-7.94
		c0.32-1.08,0.75-2.32,1.3-3.73l1.46-3.89c0.97-2.59,2.02-5.13,3.16-7.61c1.13-2.48,2.29-4.97,3.48-7.45
		c2.37-4.64,5.07-9.45,8.1-14.42C37,70.49,40.18,66,43.75,61.47c3.45-4.43,7.1-8.64,10.93-12.63c3.83-3.99,7.96-7.78,12.39-11.34
		c1.08-0.86,2.16-1.7,3.24-2.51c1.08-0.81,2.21-1.65,3.4-2.51c1.19-0.86,2.37-1.67,3.56-2.43c1.19-0.75,2.37-1.56,3.56-2.43
		c4.86-3.02,9.88-5.67,15.06-7.94c2.7-1.19,5.43-2.27,8.18-3.24c2.75-0.97,5.53-1.78,8.34-2.43c1.51-0.43,3-0.78,4.45-1.05
		c1.46-0.27,2.94-0.51,4.45-0.73c1.51-0.22,3.02-0.38,4.54-0.49c1.51-0.11,3.02-0.16,4.54-0.16c1.51-0.11,3.05-0.13,4.62-0.08
		c1.56,0.06,3.16,0.19,4.78,0.4c3.02,0.32,6.16,0.97,9.4,1.94c3.35,0.87,6.37,2.05,9.07,3.56c1.4,0.76,2.81,1.57,4.21,2.43
		c1.4,0.87,2.7,1.84,3.89,2.92c2.59,2.05,4.91,4.37,6.97,6.97c2.05,2.59,3.73,5.24,5.02,7.94c0.75,1.4,1.38,2.81,1.86,4.21
		c0.49,1.4,0.94,2.86,1.38,4.37l0.97,4.37l0.32,2.27v2.11c0.11,1.62-0.43,3.02-1.62,4.21c-1.19,1.19-2.59,1.78-4.21,1.78
		C175.11,60.98,173.49,60.17,172.2,58.55z"/>
	<path class="st0" d="M148.71,154.45l0.49,0.65c0.11,0.11,0.22,0.16,0.32,0.16c0.22,0.11,0.49,0.16,0.81,0.16
		c0.22,0,0.65-0.11,1.3-0.32c0.22-0.11,0.49-0.19,0.81-0.24c0.32-0.05,0.59-0.19,0.81-0.4l1.62-0.97l1.62-1.3
		c1.08-0.97,2.11-2,3.08-3.08c0.97-0.97,1.94-2.11,2.92-3.4c1.08-1.19,2-2.43,2.75-3.73l1.3-1.94c0.22-0.43,0.4-0.81,0.57-1.13
		c0.16-0.32,0.35-0.65,0.57-0.97c0.22-0.32,0.4-0.65,0.57-0.97c0.16-0.32,0.35-0.7,0.57-1.13c0.22-0.32,0.41-0.65,0.57-0.97
		c0.16-0.32,0.35-0.7,0.57-1.13l1.94-4.21c0.54-1.51,1.54-2.56,3-3.16c1.46-0.59,2.94-0.57,4.45,0.08c1.4,0.54,2.4,1.51,3,2.92
		c0.59,1.4,0.62,2.86,0.08,4.37l-0.49,0.97h-0.16c-0.43,0.76-0.87,1.49-1.3,2.19c-0.43,0.7-0.92,1.43-1.46,2.19l-1.3,2.11
		l-2.92,4.21l-1.46,2.11l-2.92,4.21c-0.54,0.76-1.08,1.46-1.62,2.11c-0.54,0.65-1.13,1.3-1.78,1.94c-1.19,1.62-2.43,2.97-3.73,4.05
		l-2.11,1.94c-0.32,0.32-0.68,0.62-1.05,0.89c-0.38,0.27-0.84,0.57-1.38,0.89l-2.75,1.62c-0.76,0.43-1.89,0.81-3.4,1.13
		c-1.19,0.32-2.54,0.49-4.05,0.49c-1.51-0.22-2.92-0.54-4.21-0.97c-0.22-0.11-0.38-0.16-0.49-0.16c-0.11,0-0.22-0.05-0.32-0.16
		c-0.54,1.19-1.16,2.35-1.86,3.48c-0.7,1.13-1.38,2.24-2.02,3.32c-0.87,1.3-1.78,2.59-2.75,3.89c-0.97,1.3-2.05,2.59-3.24,3.89
		l-3.73,3.56c-0.76,0.54-1.54,1.05-2.35,1.54c-0.81,0.49-1.7,0.95-2.67,1.38c-1.19,0.43-2.27,0.7-3.24,0.81
		c-0.32,0.11-0.86,0.16-1.62,0.16l-0.32,0.16h-0.65c-0.11,0-0.22-0.03-0.32-0.08c-0.11-0.05-0.27-0.08-0.49-0.08
		c-1.19,0-2.37-0.22-3.56-0.65c-0.54-0.21-1.11-0.49-1.7-0.81c-0.59-0.32-1.16-0.7-1.7-1.13c-1.08-0.97-1.94-2-2.59-3.08
		c-0.32-0.54-0.57-1.05-0.73-1.54c-0.16-0.49-0.35-1-0.57-1.54c-0.65-1.94-0.97-3.83-0.97-5.67c-0.11-0.86-0.13-1.7-0.08-2.51
		c0.06-0.81,0.14-1.65,0.24-2.51c0.11-0.86,0.19-1.67,0.24-2.43c0.06-0.75,0.19-1.56,0.4-2.43l0.97-4.54l0.49-2.27
		c0.22-0.65,0.43-1.4,0.65-2.27l2.92-8.75l3.73-8.42c1.19-2.7,2.65-5.51,4.37-8.42c0.54-0.75,1-1.48,1.38-2.19
		c0.38-0.7,0.84-1.38,1.38-2.02l1.78-2.11c0.22-0.43,0.49-0.81,0.81-1.13c0.32-0.32,0.65-0.7,0.97-1.13l2.43-2.11
		c0.54-0.32,1.05-0.67,1.54-1.05c0.49-0.38,1.05-0.73,1.7-1.05c0.65-0.32,1.35-0.62,2.11-0.89c0.75-0.27,1.62-0.51,2.59-0.73
		c0.54-0.11,1.05-0.16,1.54-0.16s1,0,1.54,0c0.65,0,1.19,0.06,1.62,0.16h0.65l0.16,0.16h0.65c2.81,0.32,5.1,1.62,6.88,3.89
		c1.78,2.27,2.51,4.81,2.19,7.61l-0.32,1.46c0.21,0.54,0.43,1.35,0.65,2.43c0.11,0.54,0.19,1.11,0.24,1.7
		c0.05,0.59,0.08,1.16,0.08,1.7v3.08c-0.11,0.87-0.19,1.76-0.24,2.67c-0.06,0.92-0.19,1.81-0.4,2.67l-1.13,4.86
		c-0.43,1.4-0.84,2.75-1.21,4.05c-0.38,1.3-0.84,2.59-1.38,3.89C148.55,154.39,148.6,154.45,148.71,154.45z M128.14,143.76
		c-0.76,1.19-1.49,2.35-2.19,3.48c-0.7,1.13-1.38,2.3-2.02,3.48c-1.3,2.27-2.43,4.7-3.4,7.29l-0.65,1.78l-0.65,1.94
		c-0.22,0.65-0.41,1.3-0.57,1.94c-0.16,0.65-0.35,1.24-0.57,1.78c-0.21,0.65-0.35,1.3-0.4,1.94c-0.05,0.65-0.13,1.24-0.24,1.78
		c-0.11,0.65-0.19,1.27-0.24,1.86c-0.05,0.59-0.08,1.16-0.08,1.7c0,0.87,0.11,1.84,0.32,2.92c0.22,0.43,0.32,0.7,0.32,0.81
		l0.32,0.32l0.16,0.16h1.62c0.22,0,0.54-0.11,0.97-0.32c0.76-0.43,1.51-0.92,2.27-1.46l2.43-2.43c0.43-0.65,0.81-1.13,1.13-1.46
		l0.97-1.62l1.94-3.24c0.54-1.19,1.08-2.37,1.62-3.56c0.54-1.19,1.02-2.43,1.46-3.73c0.21-0.86,0.46-1.75,0.73-2.67
		c0.27-0.92,0.51-1.81,0.73-2.67c-0.65-1.62-1.13-3.24-1.46-4.86c-0.43-1.73-0.76-3.62-0.97-5.67l-0.49-2.92v-0.65
		c-0.54,0.65-1.05,1.32-1.54,2.02C129.19,142.43,128.68,143.11,128.14,143.76z"/>
	<path class="st0" d="M191.47,123.67l-7.45,14.9l-3.4,7.13l1.3-1.78c0.86-1.08,1.75-2.13,2.67-3.16c0.92-1.03,1.86-2.08,2.83-3.16
		c0.97-1.08,1.92-2.13,2.83-3.16c0.92-1.02,1.97-2.08,3.16-3.16l1.62-1.62l1.78-1.62c0.32-0.11,0.7-0.38,1.13-0.81l1.46-0.97
		l0.81-0.49l1.3-0.49l0.16-0.16h0.16l0.32-0.16h0.16c0.11-0.11,0.22-0.16,0.32-0.16l0.32-0.16h0.65c0.65-0.22,1.35-0.27,2.11-0.16
		h0.65c0.21,0.11,0.38,0.16,0.49,0.16h0.32h0.16c0.11,0,0.22,0.03,0.32,0.08c0.11,0.06,0.22,0.08,0.32,0.08
		c0.43,0.11,1.08,0.38,1.94,0.81l1.46,0.97c0.43,0.32,0.78,0.65,1.05,0.97c0.27,0.32,0.51,0.65,0.73,0.97
		c0.43,0.43,0.75,0.97,0.97,1.62c0.11,0.22,0.22,0.4,0.32,0.57c0.11,0.16,0.16,0.35,0.16,0.57l0.65,2.11l0.32,1.46l0.32,2.75v2.43
		c0,0.87,0,1.65,0,2.35c0,0.7-0.06,1.43-0.16,2.19l-0.32,4.21l-1.13,8.26l-0.97,7.94v0.16l0.49-0.81c0.75-1.08,1.51-2.13,2.27-3.16
		c0.75-1.03,1.46-2.13,2.11-3.32c1.51-2.27,2.94-4.54,4.29-6.8c1.35-2.27,2.73-4.59,4.13-6.97l3.89-7.13l1.78-3.73l0.97-1.78
		l0.81-1.78c0.65-1.51,1.73-2.54,3.24-3.08c1.51-0.54,3.02-0.43,4.54,0.32c1.51,0.65,2.54,1.7,3.08,3.16
		c0.54,1.46,0.43,2.94-0.32,4.45c0,0.22-0.03,0.35-0.08,0.4c-0.06,0.06-0.08,0.14-0.08,0.24h-0.16l-8.42,14.25
		c-1.51,2.38-2.97,4.73-4.37,7.05c-1.4,2.32-2.86,4.67-4.37,7.05l-4.54,7.13c-0.43,0.54-0.84,1.11-1.21,1.7
		c-0.38,0.59-0.84,1.16-1.38,1.7c-0.22,0.32-0.43,0.65-0.65,0.97c-0.22,0.32-0.43,0.59-0.65,0.81l-1.62,1.94l-2.11,1.78
		c-0.32,0.43-0.81,0.81-1.46,1.13l-1.3,0.65l-1.94,0.49c-0.65,0-1.13-0.05-1.46-0.16c-0.32,0-0.81-0.11-1.46-0.32l-1.3-0.49
		c-0.43-0.43-0.76-0.7-0.97-0.81c-0.43-0.32-0.87-0.81-1.3-1.46l-0.65-1.13l-0.65-1.94l-0.49-1.46l-0.49-2.43
		c0-0.43-0.03-0.83-0.08-1.21c-0.06-0.38-0.08-0.78-0.08-1.21c-0.11-0.75-0.19-1.48-0.24-2.19c-0.06-0.7-0.08-1.43-0.08-2.19
		l-0.49-8.42l-0.49-8.1v-0.49l-0.81,0.81l-5.67,5.83l-5.51,5.67c-3.78,3.89-7.51,7.86-11.18,11.91s-7.23,8.13-10.69,12.23
		l-5.02,6.32l-1.94,2.59l-1.13,1.94l-0.65,1.13c0,0.11-0.11,0.27-0.32,0.49l-0.49,0.81l-0.32,0.49l-0.65,0.65l-0.65,0.49
		c0,0.11-0.16,0.21-0.49,0.32c-0.21,0.21-0.27,0.27-0.16,0.16c0.11-0.11,0.06-0.06-0.16,0.16c-0.43,0.21-0.92,0.38-1.46,0.49
		c-0.86,0.21-1.62,0.3-2.27,0.24c-0.65-0.06-1.32-0.27-2.02-0.65c-0.7-0.38-1.38-1-2.02-1.86c-0.86-1.51-1.21-2.57-1.05-3.16
		c0.16-0.59,0.19-1,0.08-1.21l0.32-0.97c0-0.22,0.06-0.32,0.16-0.32v-0.32l0.32-0.32v-0.32l0.16-0.16l0.49-0.65
		c0.11-0.22,0.22-0.41,0.32-0.57c0.11-0.16,0.22-0.35,0.32-0.57l0.65-0.81l0.32-0.49v-0.16l0.81-1.78l2.92-7.45
		c0.97-2.48,1.94-4.99,2.92-7.53c0.97-2.54,1.89-5.1,2.75-7.69c0.87-2.59,1.7-5.18,2.51-7.78c0.81-2.59,1.65-5.18,2.51-7.77
		c0.87-2.59,1.68-5.18,2.43-7.77c0.76-2.59,1.51-5.18,2.27-7.78c0.76-2.7,1.46-5.37,2.11-8.02c0.65-2.64,1.3-5.26,1.94-7.86
		c0.65-2.92,2.21-5.16,4.7-6.72c2.48-1.56,5.13-2.02,7.94-1.38c2.81,0.65,5.02,2.21,6.64,4.7c1.62,2.49,2.11,5.13,1.46,7.94
		L191.47,123.67z"/>
	<path class="st0" d="M243.3,82.36l6.97-1.13c0.32-1.19,0.7-2.27,1.13-3.24c0.43-1.51,1.02-3.18,1.78-5.02l1.94-5.35l2.27-5.35
		l1.46-2.92c0.21-0.22,0.38-0.46,0.49-0.73c0.11-0.27,0.27-0.57,0.49-0.89c0.22-0.43,0.43-0.75,0.65-0.97
		c0.11-0.32,0.43-0.75,0.97-1.3c0.11-0.22,0.38-0.54,0.81-0.97c0.22-0.21,0.41-0.43,0.57-0.65c0.16-0.21,0.46-0.43,0.89-0.65
		l1.3-0.81c0.43-0.32,1.19-0.65,2.27-0.97c0.32-0.11,0.62-0.19,0.89-0.24c0.27-0.05,0.67-0.13,1.21-0.24h1.46
		c0.86,0,1.78,0.16,2.75,0.49c1.19,0.43,2.21,0.92,3.08,1.46c0.75,0.43,1.51,1.13,2.27,2.11c0.54,0.54,1.03,1.24,1.46,2.11
		c0.21,0.22,0.35,0.49,0.4,0.81c0.05,0.32,0.13,0.59,0.24,0.81c0.32,0.97,0.49,1.73,0.49,2.27c0.11,0.43,0.16,0.92,0.16,1.46
		c0,0.43-0.03,0.81-0.08,1.13c-0.06,0.32-0.08,0.59-0.08,0.81c0,0.32-0.03,0.59-0.08,0.81c-0.06,0.22-0.08,0.43-0.08,0.65
		l-0.49,1.94l-0.97,3.4l-1.13,2.75l-0.81,2.43l132.82-23.65c2.81-0.43,5.4,0.19,7.78,1.86c2.37,1.68,3.83,3.92,4.37,6.72
		c0.54,2.92-0.03,5.56-1.7,7.94c-1.68,2.38-3.97,3.83-6.88,4.37h-0.65L271.65,89.49c-0.22,0.43-0.4,0.81-0.57,1.13
		c-0.16,0.32-0.3,0.65-0.4,0.97l-1.3,2.27l-2.59,4.86l-2.92,4.86c-0.32,1.08-0.68,2.11-1.05,3.08c-0.38,0.97-0.73,1.94-1.05,2.92
		l-3.56,9.88l-3.4,10.04l-3.4,9.88l-3.24,10.04c-0.54,1.73-1.08,3.43-1.62,5.1c-0.54,1.68-1.08,3.32-1.62,4.94l-1.46,5.02
		l-1.46,5.18l-1.46,5.02c-0.22,0.87-0.43,1.7-0.65,2.51c-0.22,0.81-0.43,1.65-0.65,2.51c-0.43,1.73-0.84,3.43-1.22,5.1
		c-0.38,1.67-0.73,3.37-1.05,5.1c-0.32,1.73-0.65,3.43-0.97,5.1c-0.32,1.67-0.59,3.37-0.81,5.1c-0.11,0.86-0.19,1.67-0.24,2.43
		c-0.05,0.75-0.08,1.56-0.08,2.43c-0.11,0.54-0.16,1.35-0.16,2.43c0,0.32,0.03,0.67,0.08,1.05c0.06,0.38,0.08,0.73,0.08,1.05v0.16
		l0.81-0.32l1.62-1.3l1.78-1.62c0.54-0.54,1.11-1.11,1.7-1.7c0.59-0.59,1.16-1.21,1.7-1.86l3.24-3.89l3.08-4.21l5.83-8.58l5.35-9.07
		l2.75-4.54l2.43-4.54c1.73-3.13,3.4-6.26,5.02-9.4c1.62-3.13,3.18-6.26,4.7-9.4l4.54-9.56l2.11-4.86l1.13-2.43l0.97-2.43
		c0.54-1.19,1.38-2.02,2.51-2.51c1.13-0.49,2.29-0.46,3.48,0.08c1.19,0.54,2.02,1.38,2.51,2.51c0.49,1.13,0.46,2.3-0.08,3.48
		c-0.11,0-0.16,0.11-0.16,0.32l-5.02,9.4l-4.86,9.56l-10.2,18.79l-2.59,4.7l-2.59,4.7c-0.97,1.51-1.92,3.05-2.83,4.62
		c-0.92,1.57-1.81,3.1-2.67,4.62l-5.83,9.07c-1.08,1.51-2.13,3-3.16,4.45c-1.03,1.46-2.13,2.94-3.32,4.46
		c-0.65,0.75-1.27,1.46-1.86,2.11c-0.59,0.65-1.27,1.35-2.02,2.11c-1.3,1.4-2.81,2.75-4.54,4.05c-0.97,0.65-2.05,1.19-3.24,1.62
		c-0.54,0.21-1.24,0.43-2.11,0.65c-0.21,0.11-0.59,0.16-1.13,0.16h-0.81c-0.43,0-0.75-0.06-0.97-0.16c-0.43,0-1.08-0.22-1.94-0.65
		c-0.65-0.43-1.13-0.81-1.46-1.13c-0.65-0.65-1.19-1.41-1.62-2.27c-0.21-0.43-0.35-0.81-0.4-1.13c-0.05-0.32-0.19-0.59-0.4-0.81
		l-0.32-1.78c-0.11-0.54-0.19-1.08-0.24-1.62c-0.05-0.54-0.08-1.08-0.08-1.62c-0.11-0.54-0.16-1.03-0.16-1.46c0-0.43,0-0.92,0-1.46
		c0-0.97,0-1.92,0-2.83c0-0.92,0.06-1.86,0.16-2.83c0.11-1.84,0.24-3.64,0.4-5.43c0.16-1.78,0.35-3.59,0.57-5.43
		c0.54-3.67,1.08-7.29,1.62-10.85c0.54-3.56,1.08-7.07,1.62-10.53l1.94-10.69c0.32-1.73,0.65-3.46,0.97-5.18
		c0.32-1.73,0.7-3.51,1.13-5.35l2.27-10.85c-1.08-1.3-1.46-2.81-1.13-4.54c0.54-1.94,1.08-3.67,1.62-5.18
		c0.22-0.86,0.46-1.7,0.73-2.51c0.27-0.81,0.57-1.65,0.89-2.51c0.54-1.73,1.13-3.4,1.78-5.02c0.65-1.62,1.3-3.29,1.94-5.02
		c1.19-3.02,2.35-6.02,3.48-8.99c1.13-2.97,2.29-5.97,3.48-8.99l-2.11,0.32c0.43-1.51,0.86-3.05,1.3-4.62
		c0.43-1.56,0.92-3.1,1.46-4.62l0.65-1.94l3.4-0.65l1.94-4.7l1.94-4.7l1.62-4.54c0.22-0.43,0.38-0.81,0.49-1.13
		c0.11-0.32,0.22-0.7,0.32-1.13l0.49-1.78c0.11-0.11,0.16-0.21,0.16-0.32v1.3c0,0.22,0.11,0.76,0.32,1.62l0.65,1.46l1.13,1.78
		l2.11,1.94c0.54,0.22,1.02,0.43,1.46,0.65c0.43,0.22,0.86,0.38,1.3,0.49c0.97,0.32,1.78,0.49,2.43,0.49h1.3
		c0.54-0.11,0.94-0.19,1.21-0.24c0.27-0.05,0.51-0.13,0.73-0.24c0.54-0.11,0.94-0.22,1.21-0.32c0.27-0.11,0.51-0.27,0.73-0.49
		c0.22-0.11,0.41-0.21,0.57-0.32c0.16-0.11,0.35-0.22,0.57-0.32l0.97-0.81c-0.11,0.43-0.38,1.08-0.81,1.94l-1.94,4.37
		c-0.22,0.32-0.43,0.81-0.65,1.46l4.05-0.65l-1.3,2.92l-2.43,5.02l-1.13,2.43l-1.3,2.43l-0.16,0.32l-2.75,0.32v0.16
		c-0.87,2.27-1.7,4.54-2.51,6.8c-0.81,2.27-1.65,4.54-2.51,6.8l-2.59,4.37c-1.62,2.92-3.51,5.94-5.67,9.07c-0.97,1.51-1.97,3-3,4.45
		c-1.03,1.46-2.08,2.94-3.16,4.45l-3.08,4.37l-3.4,4.21c-0.87,0.97-1.92,1.54-3.16,1.7c-1.24,0.16-2.35-0.19-3.32-1.05l-0.32-0.32
		c1.08-5.18,2.24-10.34,3.48-15.47c1.24-5.13,2.56-10.29,3.97-15.47c0.54-1.94,1.08-3.89,1.62-5.83c0.54-1.94,1.08-3.83,1.62-5.67
		l-2.11,0.16c-1.4,0.22-2.65-0.11-3.73-0.97c-1.08-0.86-1.73-2.05-1.94-3.56c-0.22-1.4,0.11-2.65,0.97-3.73
		C240.93,83.23,242.01,82.58,243.3,82.36z M249.62,90.46l4.05-9.72v-0.16l20.25-3.56l-1.3,3.24c-0.32,0.87-0.65,1.68-0.97,2.43
		c-0.32,0.76-0.59,1.57-0.81,2.43l-1.94,4.7l-19.92,2.27L249.62,90.46z"/>
	<path class="st0" d="M309.87,124.8h-0.32l-0.16,0.16h-0.65l-1.13,0.49c-0.76,0.22-1.68,0.7-2.75,1.46l-2.75,2.11
		c-0.43,0.43-0.87,0.84-1.29,1.21c-0.43,0.38-0.87,0.84-1.3,1.38c-0.87,0.87-1.73,1.81-2.59,2.83c-0.87,1.03-1.73,2.08-2.59,3.16
		l-4.54,6.64c-2.59,4.54-5.08,9.45-7.45,14.74l-1.46,3.73c-0.21,0.65-0.43,1.3-0.65,1.94c-0.21,0.65-0.43,1.3-0.65,1.94
		c-0.21,0.65-0.43,1.3-0.65,1.94c-0.21,0.65-0.43,1.3-0.65,1.94l-0.97,3.89c-0.22,0.65-0.35,1.3-0.4,1.94
		c-0.05,0.65-0.13,1.3-0.24,1.94c-0.11,0.65-0.19,1.3-0.24,1.94c-0.05,0.65-0.08,1.24-0.08,1.78v1.13l0.81-0.81l1.13-1.3
		c0.22-0.22,0.41-0.49,0.57-0.81c0.16-0.32,0.35-0.59,0.57-0.81c0.22-0.21,0.4-0.46,0.57-0.73c0.16-0.27,0.35-0.57,0.57-0.89
		l0.97-1.62l0.97-1.78c0.65-1.19,1.27-2.4,1.86-3.64c0.59-1.24,1.16-2.51,1.7-3.81c0.54-1.3,1.05-2.59,1.54-3.89
		c0.49-1.3,1-2.65,1.54-4.05c0.43-1.3,0.86-2.62,1.3-3.97c0.43-1.35,0.81-2.73,1.13-4.13l0.97-4.05c0-0.22,0.05-0.38,0.16-0.49
		v-1.46l0.16,0.16c0-0.11,0.03-0.16,0.08-0.16c0.05,0,0.08-0.05,0.08-0.16c0-0.43,0.05-0.75,0.16-0.97v-0.97l1.3-2.27
		c1.19-2.16,2.94-3.59,5.26-4.29c2.32-0.7,4.56-0.46,6.72,0.73c1.83,0.97,3.16,2.43,3.97,4.37c0.81,1.94,0.94,3.89,0.4,5.83v0.16
		l-0.16,0.16v0.49l-0.16,0.97l-0.49,1.78l6.48-10.53l3.56-5.67c0.65-0.86,1.27-1.78,1.86-2.75c0.59-0.97,1.21-1.94,1.86-2.92
		c0.86-1.3,2.05-2.11,3.56-2.43c1.51-0.32,2.92-0.05,4.21,0.81c1.3,0.87,2.11,2.05,2.43,3.56c0.32,1.51,0.05,2.92-0.81,4.21
		l-3.4,5.51l-3.4,5.67l-6.8,11.34l-6.48,11.5l-3.08,5.67l-2.75,5.67c-0.65,1.51-1.76,2.59-3.32,3.24c-1.57,0.65-3.11,0.59-4.62-0.16
		c-0.97-0.32-1.73-0.92-2.27-1.78h-0.16l-0.81-1.3l-0.49-1.13l-0.65-1.62c-0.22-0.43-0.35-0.86-0.4-1.3
		c-0.06-0.43-0.14-0.81-0.24-1.13l-2.92,4.54c-0.22,0.32-0.43,0.62-0.65,0.89c-0.22,0.27-0.43,0.57-0.65,0.89l-1.46,1.94
		c-0.32,0.65-0.76,1.24-1.3,1.78c-0.65,0.87-1.19,1.51-1.62,1.94c-0.97,1.3-2.21,2.54-3.73,3.73l-2.59,1.78l-1.94,0.65
		c-0.22,0-0.38,0.05-0.49,0.16h-0.65c-0.32,0.11-0.7,0.16-1.13,0.16c-0.86,0-1.78-0.16-2.75-0.49c-0.86-0.22-1.67-0.76-2.43-1.62
		c-0.32-0.22-0.62-0.51-0.89-0.89c-0.27-0.38-0.51-0.68-0.73-0.89l-0.81-1.78c-0.22-0.54-0.38-1.08-0.49-1.62
		c-0.11-0.54-0.22-1.08-0.32-1.62c-0.11-0.43-0.16-0.86-0.16-1.3c0-0.43,0-0.86,0-1.3c-0.11-0.86-0.13-1.7-0.08-2.51
		c0.06-0.81,0.14-1.65,0.24-2.51c0-0.75,0.06-1.51,0.16-2.27c0.11-0.75,0.22-1.51,0.32-2.27l0.81-4.54c0.22-0.75,0.4-1.48,0.57-2.19
		c0.16-0.7,0.35-1.43,0.57-2.19c0.22-0.75,0.41-1.48,0.57-2.19c0.16-0.7,0.35-1.43,0.57-2.19l1.13-4.37
		c1.84-5.83,3.94-11.45,6.32-16.85c0.54-1.4,1.13-2.78,1.78-4.13c0.65-1.35,1.3-2.73,1.94-4.13c0.76-1.4,1.51-2.78,2.27-4.13
		c0.76-1.35,1.57-2.73,2.43-4.13c0.43-0.75,0.87-1.46,1.3-2.11c0.43-0.65,0.92-1.3,1.46-1.94l3.08-4.21l4.05-3.89l2.27-1.94
		l1.3-0.97l0.49-0.16l0.32-0.32l0.65-0.32c2.48-1.73,5.16-2.32,8.02-1.78c2.86,0.54,5.1,2.05,6.72,4.54
		c1.73,2.49,2.32,5.16,1.78,8.02c-0.54,2.86-2.05,5.16-4.54,6.88C312.14,123.99,311.06,124.48,309.87,124.8z M275.05,183.93v0.16
		l0.16-0.16H275.05z"/>
	<path class="st0" d="M348.26,127.72l-0.16-0.16h0.16v-0.16c-0.11,0-0.19-0.02-0.24-0.08c-0.06-0.05-0.19-0.08-0.41-0.08
		c-0.54,0-1.35,0.27-2.43,0.81c-0.97,0.43-1.94,1.03-2.92,1.78c-1.19,0.87-2.21,1.73-3.08,2.59c-1.08,0.97-2.11,2.02-3.08,3.16
		c-0.97,1.13-1.94,2.3-2.92,3.48c-0.22,0.32-0.43,0.65-0.65,0.97c-0.22,0.32-0.43,0.59-0.65,0.81c-0.65,0.87-1.08,1.51-1.3,1.94
		c-0.54,0.65-1,1.3-1.38,1.94c-0.38,0.65-0.78,1.3-1.21,1.94c-0.75,1.4-1.48,2.78-2.19,4.13c-0.7,1.35-1.38,2.73-2.03,4.13
		c-0.32,0.76-0.65,1.49-0.97,2.19c-0.32,0.7-0.59,1.43-0.81,2.19c-0.32,0.76-0.62,1.49-0.89,2.19c-0.27,0.7-0.51,1.43-0.73,2.19
		l-1.13,4.21c-0.11,0.76-0.21,1.49-0.32,2.19c-0.11,0.7-0.16,1.38-0.16,2.03c-0.21,1.3-0.21,2.54,0,3.73c0,0.43,0.11,0.87,0.32,1.3
		c0.11,0.22,0.16,0.38,0.16,0.49c0,0.11,0.06,0.22,0.16,0.32c0,0.11,0.03,0.16,0.08,0.16c0.06,0,0.08,0.06,0.08,0.16
		c0.11,0,0.19,0.03,0.24,0.08c0.06,0.06,0.19,0.08,0.4,0.08h0.32l0.16,0.16h0.65c0.22-0.11,0.43-0.16,0.65-0.16
		c0.22,0,0.49-0.05,0.81-0.16c1.08-0.32,2.21-0.92,3.4-1.78c0.65-0.32,1.3-0.7,1.94-1.13c0.65-0.43,1.24-0.92,1.78-1.46
		c0.65-0.43,1.27-0.89,1.86-1.38c0.59-0.49,1.21-1,1.86-1.54l3.4-3.24l3.4-3.56l3.4-3.56c2.16-2.48,4.26-4.99,6.32-7.53
		c2.05-2.54,4.1-5.1,6.16-7.69l2.92-4.05c0.54-0.65,1.02-1.3,1.46-1.94c0.43-0.65,0.86-1.35,1.29-2.11l2.75-4.05l1.46-2.11
		l0.65-0.97l0.65-1.13c0.75-1.19,1.81-1.94,3.16-2.27c1.35-0.32,2.62-0.11,3.81,0.65c1.19,0.76,1.97,1.81,2.35,3.16
		c0.38,1.35,0.19,2.62-0.57,3.81l-0.32,0.49l-1.62,1.94l-1.46,2.11l-3.08,4.05c-0.54,0.65-1.05,1.3-1.54,1.94
		c-0.49,0.65-1,1.35-1.54,2.11l-3.08,3.89c-2.16,2.7-4.29,5.37-6.4,8.02c-2.11,2.65-4.29,5.26-6.56,7.86l-3.4,3.73l-3.56,3.89
		c-1.19,1.19-2.4,2.38-3.64,3.56c-1.24,1.19-2.57,2.38-3.97,3.56c-0.76,0.54-1.46,1.11-2.11,1.7c-0.65,0.59-1.4,1.16-2.27,1.7
		c-1.62,1.19-3.4,2.16-5.35,2.92c-0.54,0.22-1.08,0.41-1.62,0.57c-0.54,0.16-1.13,0.3-1.78,0.4c-0.21,0-0.38,0.03-0.49,0.08
		c-0.11,0.05-0.27,0.08-0.49,0.08h-3.08c-0.65-0.11-1.32-0.24-2.02-0.4c-0.7-0.16-1.38-0.41-2.02-0.73
		c-1.51-0.65-2.75-1.56-3.73-2.75c-0.97-1.19-1.73-2.37-2.27-3.56c-0.21-0.54-0.43-1.11-0.65-1.7c-0.21-0.59-0.38-1.16-0.49-1.7
		c-0.32-1.08-0.49-2.16-0.49-3.24c-0.11-0.54-0.16-1.05-0.16-1.54c0-0.49,0-1,0-1.54c0-0.97,0-1.94,0-2.92
		c0-0.97,0.11-1.94,0.32-2.92c0.11-0.86,0.22-1.75,0.32-2.67c0.11-0.92,0.27-1.81,0.49-2.67c1.62-7.02,3.89-13.88,6.8-20.57
		c0.32-0.86,0.68-1.67,1.05-2.43c0.38-0.75,0.78-1.56,1.21-2.43c0.22-0.43,0.43-0.84,0.65-1.21c0.22-0.38,0.43-0.78,0.65-1.21
		c0.22-0.43,0.43-0.84,0.65-1.21c0.22-0.38,0.43-0.78,0.65-1.21c0.87-1.51,1.81-3.08,2.83-4.7c1.03-1.62,2.13-3.18,3.32-4.7
		c0.54-0.75,1.13-1.51,1.78-2.27c0.65-0.75,1.35-1.51,2.11-2.27c1.19-1.3,2.75-2.75,4.7-4.37c0.97-0.65,2-1.3,3.08-1.94
		c1.08-0.65,2.27-1.24,3.56-1.78c0.65-0.21,1.32-0.43,2.03-0.65c0.7-0.21,1.48-0.43,2.35-0.65l2.43-0.32h2.43
		c2.92,0,5.4,1.03,7.45,3.08c2.05,2.05,3.13,4.54,3.24,7.45c0,3.02-1.03,5.56-3.08,7.61c-2.05,2.05-4.59,3.08-7.61,3.08
		c-0.32,0-0.68,0-1.05,0C349.1,127.88,348.69,127.83,348.26,127.72z"/>
	<path class="st0" d="M375.8,82.36l6.96-1.13c0.32-1.19,0.7-2.27,1.13-3.24c0.43-1.51,1.03-3.18,1.78-5.02l1.94-5.35l2.27-5.35
		l1.46-2.92c0.22-0.22,0.38-0.46,0.49-0.73c0.11-0.27,0.27-0.57,0.49-0.89c0.21-0.43,0.43-0.75,0.65-0.97
		c0.11-0.32,0.43-0.75,0.97-1.3c0.11-0.22,0.38-0.54,0.81-0.97c0.21-0.21,0.4-0.43,0.57-0.65c0.16-0.21,0.46-0.43,0.89-0.65
		l1.3-0.81c0.43-0.32,1.19-0.65,2.27-0.97c0.32-0.11,0.62-0.19,0.89-0.24c0.27-0.05,0.67-0.13,1.21-0.24h1.46
		c0.86,0,1.78,0.16,2.75,0.49c1.19,0.43,2.21,0.92,3.08,1.46c0.75,0.43,1.51,1.13,2.27,2.11c0.54,0.54,1.03,1.24,1.46,2.11
		c0.21,0.22,0.35,0.49,0.41,0.81c0.05,0.32,0.13,0.59,0.24,0.81c0.32,0.97,0.49,1.73,0.49,2.27c0.11,0.43,0.16,0.92,0.16,1.46
		c0,0.43-0.03,0.81-0.08,1.13c-0.06,0.32-0.08,0.59-0.08,0.81c0,0.32-0.03,0.59-0.08,0.81c-0.06,0.22-0.08,0.43-0.08,0.65
		l-0.49,1.94l-0.97,3.4l-1.13,2.75l-0.81,2.43l132.82-23.65c2.81-0.43,5.4,0.19,7.78,1.86c2.37,1.68,3.83,3.92,4.37,6.72
		c0.54,2.92-0.03,5.56-1.7,7.94c-1.68,2.38-3.97,3.83-6.88,4.37h-0.65L404.14,89.49c-0.22,0.43-0.41,0.81-0.57,1.13
		c-0.16,0.32-0.3,0.65-0.4,0.97l-1.3,2.27l-2.59,4.86l-2.92,4.86c-0.32,1.08-0.68,2.11-1.05,3.08c-0.38,0.97-0.73,1.94-1.05,2.92
		l-3.56,9.88l-3.4,10.04l-3.4,9.88l-3.24,10.04c-0.54,1.73-1.08,3.43-1.62,5.1c-0.54,1.68-1.08,3.32-1.62,4.94l-1.46,5.02
		l-1.46,5.18l-1.46,5.02c-0.22,0.87-0.43,1.7-0.65,2.51c-0.22,0.81-0.43,1.65-0.65,2.51c-0.43,1.73-0.83,3.43-1.21,5.1
		c-0.38,1.67-0.73,3.37-1.05,5.1c-0.32,1.73-0.65,3.43-0.97,5.1c-0.32,1.67-0.59,3.37-0.81,5.1c-0.11,0.86-0.19,1.67-0.24,2.43
		c-0.05,0.75-0.08,1.56-0.08,2.43c-0.11,0.54-0.16,1.35-0.16,2.43c0,0.32,0.03,0.67,0.08,1.05c0.06,0.38,0.08,0.73,0.08,1.05v0.16
		l0.81-0.32l1.62-1.3l1.78-1.62c0.54-0.54,1.11-1.11,1.7-1.7c0.59-0.59,1.16-1.21,1.7-1.86l3.24-3.89l3.08-4.21l5.83-8.58l5.34-9.07
		l2.75-4.54l2.43-4.54c1.73-3.13,3.4-6.26,5.02-9.4c1.62-3.13,3.18-6.26,4.7-9.4l4.54-9.56l2.11-4.86l1.13-2.43l0.97-2.43
		c0.54-1.19,1.38-2.02,2.51-2.51s2.29-0.46,3.48,0.08c1.19,0.54,2.03,1.38,2.51,2.51c0.49,1.13,0.46,2.3-0.08,3.48
		c-0.11,0-0.16,0.11-0.16,0.32l-5.02,9.4l-4.86,9.56l-10.21,18.79l-2.59,4.7l-2.59,4.7c-0.97,1.51-1.92,3.05-2.83,4.62
		c-0.92,1.57-1.81,3.1-2.67,4.62l-5.83,9.07c-1.08,1.51-2.13,3-3.16,4.45c-1.03,1.46-2.13,2.94-3.32,4.46
		c-0.65,0.75-1.27,1.46-1.86,2.11c-0.59,0.65-1.27,1.35-2.02,2.11c-1.3,1.4-2.81,2.75-4.54,4.05c-0.97,0.65-2.05,1.19-3.24,1.62
		c-0.54,0.21-1.24,0.43-2.11,0.65c-0.22,0.11-0.59,0.16-1.13,0.16h-0.81c-0.43,0-0.75-0.06-0.97-0.16c-0.43,0-1.08-0.22-1.94-0.65
		c-0.65-0.43-1.13-0.81-1.46-1.13c-0.65-0.65-1.19-1.41-1.62-2.27c-0.21-0.43-0.35-0.81-0.41-1.13c-0.05-0.32-0.19-0.59-0.4-0.81
		l-0.32-1.78c-0.11-0.54-0.19-1.08-0.24-1.62c-0.05-0.54-0.08-1.08-0.08-1.62c-0.11-0.54-0.16-1.03-0.16-1.46c0-0.43,0-0.92,0-1.46
		c0-0.97,0-1.92,0-2.83c0-0.92,0.06-1.86,0.16-2.83c0.11-1.84,0.24-3.64,0.41-5.43c0.16-1.78,0.35-3.59,0.57-5.43
		c0.54-3.67,1.08-7.29,1.62-10.85c0.54-3.56,1.08-7.07,1.62-10.53l1.94-10.69c0.32-1.73,0.65-3.46,0.97-5.18
		c0.32-1.73,0.7-3.51,1.13-5.35l2.27-10.85c-1.08-1.3-1.46-2.81-1.13-4.54c0.54-1.94,1.08-3.67,1.62-5.18
		c0.22-0.86,0.46-1.7,0.73-2.51c0.27-0.81,0.57-1.65,0.89-2.51c0.54-1.73,1.13-3.4,1.78-5.02c0.65-1.62,1.3-3.29,1.94-5.02
		c1.19-3.02,2.35-6.02,3.48-8.99c1.13-2.97,2.29-5.97,3.48-8.99l-2.11,0.32c0.43-1.51,0.86-3.05,1.3-4.62
		c0.43-1.56,0.92-3.1,1.46-4.62l0.65-1.94l3.4-0.65l1.94-4.7l1.94-4.7l1.62-4.54c0.21-0.43,0.38-0.81,0.49-1.13
		c0.11-0.32,0.21-0.7,0.32-1.13l0.49-1.78c0.11-0.11,0.16-0.21,0.16-0.32v1.3c0,0.22,0.11,0.76,0.32,1.62l0.65,1.46l1.13,1.78
		l2.11,1.94c0.54,0.22,1.02,0.43,1.46,0.65c0.43,0.22,0.86,0.38,1.3,0.49c0.97,0.32,1.78,0.49,2.43,0.49h1.3
		c0.54-0.11,0.94-0.19,1.21-0.24c0.27-0.05,0.51-0.13,0.73-0.24c0.54-0.11,0.94-0.22,1.21-0.32c0.27-0.11,0.51-0.27,0.73-0.49
		c0.21-0.11,0.41-0.21,0.57-0.32c0.16-0.11,0.35-0.22,0.57-0.32l0.97-0.81c-0.11,0.43-0.38,1.08-0.81,1.94l-1.94,4.37
		c-0.22,0.32-0.43,0.81-0.65,1.46l4.05-0.65l-1.3,2.92l-2.43,5.02l-1.13,2.43l-1.3,2.43l-0.16,0.32l-2.75,0.32v0.16
		c-0.87,2.27-1.7,4.54-2.51,6.8c-0.81,2.27-1.65,4.54-2.51,6.8l-2.59,4.37c-1.62,2.92-3.51,5.94-5.67,9.07c-0.97,1.51-1.97,3-3,4.45
		c-1.03,1.46-2.08,2.94-3.16,4.45l-3.08,4.37l-3.4,4.21c-0.87,0.97-1.92,1.54-3.16,1.7s-2.35-0.19-3.32-1.05l-0.32-0.32
		c1.08-5.18,2.24-10.34,3.48-15.47c1.24-5.13,2.56-10.29,3.97-15.47c0.54-1.94,1.08-3.89,1.62-5.83c0.54-1.94,1.08-3.83,1.62-5.67
		l-2.11,0.16c-1.41,0.22-2.65-0.11-3.73-0.97c-1.08-0.86-1.73-2.05-1.94-3.56c-0.21-1.4,0.11-2.65,0.97-3.73
		C373.42,83.23,374.5,82.58,375.8,82.36z M382.11,90.46l4.05-9.72v-0.16l20.25-3.56l-1.3,3.24c-0.32,0.87-0.65,1.68-0.97,2.43
		c-0.32,0.76-0.59,1.57-0.81,2.43l-1.94,4.7l-19.92,2.27L382.11,90.46z"/>
</g>
<g>
</g>
<g>
</g>
<g>
</g>
<g>
</g>
<g>
</g>
<g>
</g>
</svg>
